<svg width="40" height="40" viewBox="0 0 40 40" fill="none" xmlns="http://www.w3.org/2000/svg">
<g clip-path="url(#clip0_1168_88)">
<path d="M19.9992 38.5716C30.2559 38.5716 38.5706 30.2569 38.5706 20.0001C38.5706 9.74342 30.2559 1.42871 19.9992 1.42871C9.74245 1.42871 1.42773 9.74342 1.42773 20.0001C1.42773 30.2569 9.74245 38.5716 19.9992 38.5716Z" stroke="#0d1f3c" stroke-width="1.5" stroke-linecap="round" stroke-linejoin="round"/>
<path d="M1.42773 20H38.5706" stroke="#0d1f3c" stroke-width="1.5" stroke-linecap="round" stroke-linejoin="round"/>
<path d="M27.1412 20.0001C26.7903 26.7915 24.2888 33.2954 19.9983 38.5716C15.7078 33.2954 13.2063 26.7915 12.8555 20.0001C13.2063 13.2087 15.7078 6.70486 19.9983 1.42871C24.2888 6.70486 26.7903 13.2087 27.1412 20.0001V20.0001Z" stroke="#0d1f3c" stroke-width="1.5" stroke-linecap="round" stroke-linejoin="round"/>
</g>
<defs>
<clipPath id="clip0_1168_88">
<rect width="40" height="40" fill="white"/>
</clipPath>
</defs>
</svg>
